<svg version="1.2" xmlns="http://www.w3.org/2000/svg" viewBox="0 0 643 228" width="643" height="228">
	<title>Новый проект</title>
	<style>
		.s0 { fill: #ca4c4c } 
		.s1 { fill: #000000 } 
	</style>
	<g id="Layer 2">
		<g id="&lt;Group&gt;">
			<path id="&lt;Compound Path&gt;" fill-rule="evenodd" class="s0" d="m317.9 54.4c17.2 7.4 33.5 17 50.2 25.6q0 5.2 0 10.3c-4.1 4.7-10.3 8.6-16.3 11.3c-20.3 9.3-41.2 17.6-61.5 26.9c-3.1 1.4-6.2 6.2-6.4 9.6c-0.7 14.2 0.6 28.7-0.6 42.9c-0.6 6.8-3.3 15.9-8.3 19.6c-10.8 7.8-23.2 13.6-35.7 18.5c-10.6 4.1-21.3 5.9-33.3 7.9c-15 0-28 0-43 0c0.1 0-6.7-1.4-9.3-2.1c-15.6-4.6-31.5-8.2-46.6-13.9c-16.3-6.2-24.2-18.8-23.2-36.8c0.6-11.9 0.3-23.9 0-35.8c-0.1-3.1-1.2-7.6-3.3-8.8c-6.2-3.6-13.2-6-21.6-9.5c0 12.5-0.1 23 0.2 33.5c0 1.6 1.6 3.4 2.7 4.8c16.4 20.7 20 44 15 69.3q-5.1 0-10.2 0c-2-11.2-3.9-22.5-5.9-33.8c-2.3 11.8-4.4 22.8-6.4 33.8q-4.1 0-8.2 0c-1.9-10.2-3.7-20.3-5.7-31.2c-2.3 10.9-4.5 21-6.6 31.2q-4.1 0-8.2 0c-8.9-22.6-3.1-43.6 9-62.6c4.8-7.6 8.4-14.2 7.8-23.1c-0.5-6.1-0.6-12.4 0-18.4c0.9-8.3-3.1-12.1-10.2-15.2c-10.7-4.7-20.9-11-31.3-16.4c-2-5-2-9 0.1-14c3.5-2.6 6.8-5.9 10.7-7.5c39.4-16.7 79-33 118.4-49.7c15.2-6.5 30.1-13.8 45.2-20.7q9.2 0 18.4 0m-123.6 106.9c3.1 1.7 3.9 2.3 4.8 2.7c34.5 14.6 68.9 29.4 103.6 43.6c3.8 1.5 9.5 0.6 13.5-1.1c38.7-15.9 77.3-32.3 115.8-48.6c13.7-5.7 27.3-11.6 42.5-18.2c-5.5-2.7-9.1-4.7-12.8-6.2c-48.4-20.2-96.7-40.5-145.3-60.3c-4.7-1.9-11.5-2.2-16.2-0.3c-35.1 14-69.9 28.6-104.7 43.2c-17.5 7.3-34.9 14.9-54.5 23.3c11 4.5 19.9 8.5 29 11.8c2.5 0.9 5.9 0.8 8.5-0.2c27.1-10.1 54.2-20.4 81.1-30.8c4.8-1.8 10.2-3.8 11.7 2.6c0.7 3-2.7 8.7-5.9 10.5c-7 3.9-15.1 6.1-22.7 9.1c-15.3 6-30.7 12-48.4 18.9zm30.5 30.4c0 16.2-0.2 30.5 0.2 44.7c0 3 1.5 7 3.8 8.7c5.4 4 11.3 7.6 17.6 10.1c31 12.1 63.4 12.8 95.6 7.5c14.1-2.3 27.6-8.9 41-14.5c3.6-1.5 8-6.2 8.2-9.6c0.9-15.1 0.4-30.2 0.4-47.1c-24.4 10.3-47.2 19.4-69.5 29.5c-10.2 4.6-19.1 4.3-29.2-0.4c-22-10-44.4-18.9-68.1-28.9z"/>
		</g>
		<path id="KROK 
VPRED
" class="s1" aria-label="KROK 
VPRED"  d="m437.9 106h17l-19.5-26.1l18.6-24.7h-16.3l-15.7 21.9v-21.9h-14.1v50.8h14.1v-22.2zm49.1-33.7c0 3.4-2 5.3-5.8 5.3h-7v-10.6h7c3.8 0 5.8 2.1 5.8 5.3zm-26.9-17.1v50.8h14.1v-18.8h1.5l10.1 18.8h15.8l-11.5-19.8c7.6-2.4 11.2-8.1 11.2-14.7c0-9.1-6.3-16.3-18.9-16.3zm97.9 25.2c0-15.3-11.5-26-26-26c-14.4 0-26.1 10.7-26.1 26c0 15.3 11.7 26.1 26.1 26.1c14.4 0 26-10.8 26-26.1zm-37.7 0c0-8 4.3-13 11.7-13c7.3 0 11.7 5 11.7 13c0 7.8-4.4 13-11.7 13c-7.4 0-11.7-5.2-11.7-13zm74 25.6h17.1l-19.6-26.2l18.7-24.6h-16.3l-15.8 21.9v-21.9h-14.1v50.8h14.1v-22.3zm-163.6 72.9l-11.5-36.7h-15.2l17.6 50.8h18.1l17.5-50.8h-15.1zm45-14.2v-11h5.6c4.3 0 6 2.1 6 5.5c0 3.3-1.7 5.5-6 5.5zm26-5.5c0-9.8-6.4-16.9-19-16.9h-21.1v50.8h14.1v-17.2h7c12.9 0 19-7.8 19-16.7zm32.6 0.2c0 3.4-2 5.3-5.8 5.3h-7v-10.6h7c3.8 0 5.8 2.1 5.8 5.3zm-26.9-17.1v50.8h14.1v-18.8h1.5l10.1 18.8h15.8l-11.5-19.8c7.6-2.3 11.2-8.1 11.2-14.7c0-9.1-6.3-16.3-18.9-16.3zm80 0h-32.4v50.8h32.4v-11.3h-18.3v-9.2h16.2v-10.7h-16.2v-8.3h18.3zm27.1 0h-20.1v50.8h20.1c16.2 0 26.5-10.8 26.5-25.5c0-14.9-10.3-25.3-26.5-25.3zm-6 38.3v-26.1h4.9c8.2 0 13.3 4.7 13.3 13.1c0 8.4-5.1 13-13.3 13z"/>
	</g>
</svg>